<svg xmlns="http://www.w3.org/2000/svg" xmlns:xlink="http://www.w3.org/1999/xlink" width="158" zoomAndPan="magnify" viewBox="0 0 118.5 31.5" height="42" preserveAspectRatio="xMidYMid meet" version="1.0"><defs><g/><clipPath id="0cbd48fd08"><path d="M 2.203125 0.933594 L 24.351562 0.933594 L 24.351562 29.726562 L 2.203125 29.726562 Z M 2.203125 0.933594 " clip-rule="nonzero"/></clipPath></defs><g fill="#000000" fill-opacity="1"><g transform="translate(28.212828, 21.324532)"><g><path d="M 0.90625 -9.71875 L 0.09375 -9.71875 L 0.90625 -13.3125 L 3.71875 -13.3125 C 4.269531 -13.3125 4.75 -13.289062 5.15625 -13.25 C 5.5625 -13.21875 5.925781 -13.15625 6.25 -13.0625 C 6.570312 -12.96875 6.863281 -12.84375 7.125 -12.6875 C 7.394531 -12.53125 7.660156 -12.332031 7.921875 -12.09375 C 9.328125 -10.863281 10.03125 -9.066406 10.03125 -6.703125 C 10.03125 -5.453125 9.828125 -4.335938 9.421875 -3.359375 C 9.023438 -2.378906 8.453125 -1.597656 7.703125 -1.015625 C 7.460938 -0.816406 7.210938 -0.65625 6.953125 -0.53125 C 6.691406 -0.40625 6.398438 -0.300781 6.078125 -0.21875 C 5.765625 -0.132812 5.398438 -0.078125 4.984375 -0.046875 C 4.578125 -0.015625 4.09375 0 3.53125 0 L 0.90625 0 Z M 4.5 -3.59375 C 5.050781 -3.625 5.476562 -3.90625 5.78125 -4.4375 C 6.082031 -4.96875 6.234375 -5.710938 6.234375 -6.671875 C 6.234375 -7.671875 6.097656 -8.398438 5.828125 -8.859375 C 5.566406 -9.328125 5.125 -9.613281 4.5 -9.71875 Z M 4.5 -3.59375 "/></g></g></g><g fill="#000000" fill-opacity="1"><g transform="translate(38.636241, 21.324532)"><g><path d="M 0.84375 -6.453125 L 0.09375 -6.453125 L 0.84375 -9.71875 L 4.109375 -9.71875 L 4.109375 -3.1875 L 4.8125 -3.1875 L 4.109375 0 L 0.84375 0 Z M 1.390625 -13.71875 L 4.65625 -13.71875 L 3.953125 -10.46875 L 0.671875 -10.46875 Z M 1.390625 -13.71875 "/></g></g></g><g fill="#000000" fill-opacity="1"><g transform="translate(43.548432, 21.324532)"><g><path d="M 1.3125 -0.296875 C 1.8125 -0.0664062 2.296875 0.109375 2.765625 0.234375 C 3.234375 0.359375 3.644531 0.421875 4 0.421875 C 4.289062 0.421875 4.523438 0.390625 4.703125 0.328125 C 4.878906 0.265625 5.019531 0.148438 5.125 -0.015625 C 5.238281 -0.191406 5.3125 -0.425781 5.34375 -0.71875 C 5.382812 -1.007812 5.40625 -1.390625 5.40625 -1.859375 L 5.40625 -3.1875 L 4.859375 -0.734375 C 4.722656 -0.710938 4.609375 -0.703125 4.515625 -0.703125 C 4.421875 -0.703125 4.320312 -0.703125 4.21875 -0.703125 C 2.945312 -0.703125 2.019531 -0.988281 1.4375 -1.5625 C 0.71875 -2.300781 0.359375 -3.398438 0.359375 -4.859375 C 0.359375 -5.585938 0.4375 -6.253906 0.59375 -6.859375 C 0.757812 -7.460938 0.984375 -7.976562 1.265625 -8.40625 C 1.554688 -8.84375 1.90625 -9.179688 2.3125 -9.421875 C 2.71875 -9.660156 3.164062 -9.78125 3.65625 -9.78125 C 3.957031 -9.78125 4.234375 -9.738281 4.484375 -9.65625 C 4.742188 -9.582031 5.050781 -9.429688 5.40625 -9.203125 L 5.40625 -9.71875 L 8.6875 -9.71875 L 8.6875 -1.09375 C 8.6875 -0.664062 8.679688 -0.316406 8.671875 -0.046875 C 8.671875 0.222656 8.660156 0.445312 8.640625 0.625 C 8.617188 0.8125 8.585938 0.960938 8.546875 1.078125 C 8.503906 1.203125 8.457031 1.328125 8.40625 1.453125 C 8.125 2.023438 7.660156 2.46875 7.015625 2.78125 C 6.367188 3.09375 5.59375 3.25 4.6875 3.25 C 4.0625 3.25 3.410156 3.191406 2.734375 3.078125 C 2.066406 2.972656 1.394531 2.8125 0.71875 2.59375 Z M 5.40625 -4.984375 C 5.40625 -5.628906 5.351562 -6.066406 5.25 -6.296875 C 5.144531 -6.535156 4.945312 -6.65625 4.65625 -6.65625 C 4.375 -6.65625 4.148438 -6.507812 3.984375 -6.21875 C 3.816406 -5.9375 3.734375 -5.539062 3.734375 -5.03125 C 3.734375 -4.519531 3.832031 -4.160156 4.03125 -3.953125 C 4.226562 -3.742188 4.582031 -3.640625 5.09375 -3.640625 C 5.132812 -3.640625 5.175781 -3.640625 5.21875 -3.640625 C 5.269531 -3.640625 5.332031 -3.644531 5.40625 -3.65625 Z M 5.40625 -4.984375 "/></g></g></g><g fill="#000000" fill-opacity="1"><g transform="translate(52.973436, 21.324532)"><g><path d="M 0.84375 -6.453125 L 0.09375 -6.453125 L 0.84375 -9.71875 L 4.109375 -9.71875 L 4.109375 -3.1875 L 4.8125 -3.1875 L 4.109375 0 L 0.84375 0 Z M 1.390625 -13.71875 L 4.65625 -13.71875 L 3.953125 -10.46875 L 0.671875 -10.46875 Z M 1.390625 -13.71875 "/></g></g></g><path stroke-linecap="butt" transform="matrix(0.738281, 0, 0, 0.738281, 58.631961, 1.390937)" fill="none" stroke-linejoin="miter" d="M 13.122846 25.078941 C 11.46147 26.539259 9.720729 27.269418 7.900624 27.269418 C 6.815968 27.269418 5.778931 27.004867 4.789513 26.470476 C 3.794804 25.941375 2.958825 25.195343 2.270994 24.237672 C 1.117555 22.634497 0.540835 20.634497 0.540835 18.237672 C 0.540835 16.465185 0.82655 14.883174 1.392687 13.486349 C 1.958825 12.094815 2.757767 10.978413 3.784222 10.147725 C 4.366232 9.682116 4.995862 9.322328 5.678402 9.06836 C 6.366232 8.814391 7.048772 8.687407 7.731312 8.687407 C 7.990571 8.687407 8.233957 8.70328 8.466761 8.740317 C 8.699565 8.777354 9.006444 8.840846 9.382105 8.930794 L 9.657237 8.364656 L 13.281576 10.041905 L 11.255121 15.422857 C 10.784222 14.793227 10.323904 14.338201 9.884751 14.063069 C 9.445597 13.782645 8.937661 13.639788 8.360941 13.639788 C 6.572581 13.639788 5.678402 15.110688 5.678402 18.047195 C 5.678402 19.454603 5.895333 20.54455 6.329195 21.322328 C 6.763058 22.094814 7.366232 22.481058 8.14401 22.481058 C 9.260412 22.481058 10.297449 21.692698 11.255121 20.105397 Z M 19.609618 13.555132 C 20.440306 13.555132 21.202211 13.719153 21.895332 14.057778 C 22.588454 14.391111 23.191629 14.86201 23.694274 15.475767 C 24.19692 16.089524 24.588454 16.814391 24.868877 17.655661 C 25.149301 18.49164 25.292158 19.406984 25.292158 20.401693 C 25.292158 21.412275 25.149301 22.338201 24.868877 23.190053 C 24.588454 24.036613 24.19692 24.761481 23.694274 25.364656 C 23.191629 25.96783 22.583163 26.433439 21.868877 26.766772 C 21.154592 27.105396 20.376814 27.269418 19.530253 27.269418 C 18.715438 27.269418 17.969407 27.100105 17.292158 26.75619 C 16.6202 26.412275 16.027608 25.936084 15.524962 25.322328 C 15.022317 24.708571 14.630782 23.988994 14.345068 23.147724 C 14.069936 22.306455 13.93237 21.391111 13.93237 20.401693 C 13.93237 19.406984 14.069936 18.49164 14.345068 17.655661 C 14.630782 16.814391 15.022317 16.094815 15.524962 15.49164 C 16.027608 14.888465 16.625491 14.412275 17.318613 14.06836 C 18.017026 13.724444 18.77893 13.555132 19.609618 13.555132 Z M 19.609618 18.073651 C 19.19692 18.073651 18.879459 18.285291 18.657237 18.713862 C 18.445597 19.137143 18.334486 19.740317 18.334486 20.533968 C 18.334486 21.343492 18.445597 21.962539 18.657237 22.391111 C 18.879459 22.814391 19.19692 23.026031 19.609618 23.026031 C 20.022317 23.026031 20.339777 22.814391 20.556708 22.391111 C 20.768348 21.962539 20.879459 21.364656 20.879459 20.586878 C 20.879459 18.909629 20.456179 18.073651 19.609618 18.073651 Z M 32.916496 23.026031 L 32.022316 26.999576 C 31.93766 26.999576 31.847713 26.994285 31.763057 26.988994 C 31.683692 26.978412 31.593745 26.973121 31.493216 26.973121 C 31.397978 26.973121 31.270994 26.973121 31.117554 26.973121 C 30.964115 26.973121 30.763057 26.973121 30.509089 26.973121 C 29.720729 26.973121 29.085808 26.86201 28.614909 26.634497 C 28.1493 26.412275 27.763057 26.036613 27.450888 25.512804 C 27.323904 25.295873 27.228666 25.100105 27.154592 24.920211 C 27.085808 24.740317 27.032898 24.512804 26.99057 24.248254 C 26.953533 23.973121 26.932369 23.623915 26.927078 23.200635 C 26.916496 22.777354 26.911205 22.221799 26.911205 21.539259 L 26.911205 18.264127 L 25.905914 18.264127 L 26.911205 13.824973 L 31.350359 13.824973 L 31.350359 19.290582 C 31.350359 19.851428 31.35565 20.301164 31.360941 20.645079 C 31.371523 20.983703 31.382105 21.264127 31.387396 21.486349 C 31.397978 21.70328 31.413851 21.86201 31.440306 21.973121 C 31.466761 22.078941 31.509089 22.168889 31.56729 22.237672 C 31.657237 22.38582 31.800094 22.496931 31.995861 22.581587 C 32.196919 22.660952 32.403269 22.70328 32.614909 22.70328 C 32.651946 22.70328 32.694274 22.70328 32.736602 22.70328 C 32.784221 22.70328 32.842422 22.692698 32.916496 22.676825 L 32.916496 13.824973 L 37.350358 13.824973 L 37.350358 22.676825 L 38.297448 22.676825 L 37.350358 26.999576 L 32.916496 26.999576 Z M 39.56729 18.264127 L 38.56729 18.264127 L 39.56729 13.824973 L 44.006443 13.824973 L 44.006443 15.01545 C 44.276284 14.581587 44.604327 14.269418 44.99057 14.06836 C 45.376813 13.872592 45.874168 13.772063 46.472051 13.772063 C 46.556707 13.772063 46.646655 13.772063 46.736602 13.772063 C 46.826549 13.772063 46.93766 13.787936 47.064644 13.824973 L 46.085808 18.264127 C 45.821258 18.115979 45.583163 18.047195 45.387395 18.047195 C 45.170464 18.047195 44.964115 18.094815 44.757766 18.195344 C 44.561999 18.295873 44.408559 18.422857 44.302739 18.586878 C 44.249829 18.676825 44.20221 18.782645 44.154591 18.888465 C 44.106972 18.994285 44.080517 19.137143 44.059353 19.306455 C 44.04348 19.475767 44.027607 19.692698 44.022316 19.951957 C 44.011734 20.211217 44.006443 20.539259 44.006443 20.936084 L 44.006443 26.999576 L 39.56729 26.999576 Z M 48.20221 22.105396 C 48.810676 22.518095 49.318612 22.819682 49.715438 22.999576 C 50.106972 23.179471 50.461469 23.269418 50.768348 23.269418 C 51.218083 23.269418 51.445596 23.094814 51.445596 22.75619 C 51.445596 22.592169 51.366231 22.444021 51.212792 22.311746 C 51.059353 22.17418 50.747184 21.988994 50.281575 21.750899 C 48.477342 20.867301 47.57258 19.581587 47.57258 17.888465 C 47.57258 17.253545 47.683692 16.671534 47.911205 16.142434 C 48.138718 15.608042 48.456178 15.153016 48.863586 14.777354 C 49.265702 14.396402 49.747184 14.100106 50.30803 13.883174 C 50.868877 13.666243 51.482633 13.555132 52.1493 13.555132 C 52.435014 13.555132 52.715438 13.576296 52.979988 13.613333 C 53.25512 13.65037 53.535543 13.70328 53.821258 13.772063 C 54.112263 13.840846 54.41385 13.941375 54.726019 14.06836 C 55.04348 14.195344 55.397977 14.348783 55.794803 14.533968 L 54.99057 18.343492 C 53.958824 17.745608 53.181046 17.449312 52.657236 17.449312 C 52.51967 17.449312 52.397977 17.496931 52.297448 17.586878 C 52.196919 17.676825 52.1493 17.793227 52.1493 17.941375 C 52.1493 18.026031 52.159882 18.100106 52.175755 18.158307 C 52.191628 18.211217 52.260411 18.28 52.376813 18.359365 C 52.493215 18.43873 52.6784 18.555132 52.927078 18.697989 C 53.186337 18.840846 53.546125 19.047195 54.011734 19.317037 C 55.456178 20.110688 56.181046 21.290582 56.181046 22.856719 C 56.181046 23.512804 56.054062 24.105396 55.810676 24.634497 C 55.567289 25.163597 55.223374 25.629206 54.784221 26.031322 C 54.345067 26.422857 53.821258 26.729735 53.212792 26.946666 C 52.609617 27.163597 51.948242 27.269418 51.223374 27.269418 C 49.964115 27.269418 48.625491 26.983703 47.196919 26.406984 Z M 66.614908 26.867301 C 66.059353 27.010158 65.540834 27.110687 65.069935 27.174179 C 64.604326 27.237671 64.117554 27.269418 63.614908 27.269418 C 62.371522 27.269418 61.318612 27.057777 60.461469 26.634497 C 59.609617 26.211216 58.874168 25.539259 58.25512 24.623915 C 57.376813 23.306455 56.93766 21.835555 56.93766 20.211217 C 56.93766 19.274709 57.080517 18.401693 57.366231 17.586878 C 57.657236 16.777354 58.054062 16.06836 58.567289 15.475767 C 59.080517 14.883174 59.683691 14.412275 60.371522 14.06836 C 61.054062 13.724444 61.805384 13.555132 62.614908 13.555132 C 64.456178 13.555132 65.853003 14.38582 66.810675 16.041905 C 67.583162 17.433439 67.969405 19.02074 67.969405 20.803809 C 67.969405 20.840846 67.969405 20.925502 67.969405 21.063068 C 67.969405 21.200635 67.964114 21.338201 67.94295 21.481058 L 61.477342 21.481058 C 61.73131 22.163598 62.069935 22.655661 62.503797 22.946666 C 62.937659 23.232381 63.561998 23.375238 64.371522 23.375238 C 64.842421 23.375238 65.366231 23.327619 65.94295 23.22709 C 66.51967 23.12656 67.04348 22.988994 67.509088 22.8091 Z M 63.752474 18.856719 C 63.657236 18.22709 63.51967 17.772063 63.329194 17.496931 C 63.138718 17.216508 62.874167 17.073651 62.535543 17.073651 C 62.207501 17.073651 61.932369 17.237672 61.704855 17.560423 C 61.477342 17.883174 61.350358 18.317037 61.313321 18.856719 Z M 72.159882 21.724444 C 72.916495 21.724444 73.509088 21.978412 73.94295 22.481058 C 74.376813 22.988994 74.593744 23.671534 74.593744 24.539259 C 74.593744 25.401693 74.366231 26.089523 73.900622 26.59746 C 73.445596 27.100105 72.83713 27.348783 72.080516 27.348783 C 71.323903 27.348783 70.715437 27.100105 70.265702 26.59746 C 69.815966 26.089523 69.588453 25.422857 69.588453 24.592169 C 69.588453 23.724444 69.821257 23.031322 70.292157 22.507513 C 70.763056 21.983703 71.382104 21.724444 72.159882 21.724444 Z M 72.159882 21.724444 " stroke="#000000" stroke-width="0.727189" stroke-opacity="1" stroke-miterlimit="4"/><path fill="#e86210" d="M 13.273438 4.871094 C 9.152344 4.871094 5.796875 8.226562 5.796875 12.347656 C 5.796875 16.46875 9.152344 19.824219 13.273438 19.824219 C 17.394531 19.824219 20.75 16.46875 20.75 12.347656 C 20.75 8.226562 17.394531 4.871094 13.273438 4.871094 Z M 13.273438 18.867188 C 9.679688 18.867188 6.753906 15.945312 6.753906 12.347656 C 6.753906 8.75 9.679688 5.824219 13.273438 5.824219 C 16.871094 5.824219 19.796875 8.75 19.796875 12.347656 C 19.796875 15.945312 16.871094 18.867188 13.273438 18.867188 Z M 13.273438 18.867188 " fill-opacity="1" fill-rule="nonzero"/><path fill="#e86210" d="M 16.730469 10.253906 L 14.792969 10.246094 L 14.195312 8.414062 C 14.0625 8.007812 13.703125 7.742188 13.273438 7.742188 C 12.847656 7.742188 12.484375 8.007812 12.355469 8.414062 L 11.746094 10.253906 L 9.816406 10.253906 C 9.390625 10.253906 9.027344 10.519531 8.894531 10.925781 C 8.765625 11.332031 8.902344 11.757812 9.25 12.007812 L 10.8125 13.15625 L 10.21875 14.988281 C 10.085938 15.394531 10.222656 15.820312 10.570312 16.070312 C 10.742188 16.199219 10.941406 16.261719 11.140625 16.261719 C 11.335938 16.261719 11.535156 16.195312 11.707031 16.070312 L 13.285156 14.9375 L 14.84375 16.070312 C 15.1875 16.320312 15.636719 16.324219 15.980469 16.070312 C 16.328125 15.820312 16.464844 15.394531 16.332031 14.988281 L 15.742188 13.140625 L 17.300781 12.007812 C 17.648438 11.753906 17.785156 11.332031 17.652344 10.921875 C 17.519531 10.519531 17.160156 10.253906 16.730469 10.253906 Z M 15.179688 12.371094 C 14.839844 12.617188 14.699219 13.054688 14.828125 13.453125 L 15.402344 15.300781 L 13.84375 14.167969 C 13.675781 14.042969 13.476562 13.980469 13.277344 13.980469 C 13.078125 13.980469 12.875 14.042969 12.707031 14.167969 L 11.125 15.285156 L 11.722656 13.453125 C 11.851562 13.050781 11.710938 12.617188 11.367188 12.367188 L 9.816406 11.210938 L 11.746094 11.210938 C 12.167969 11.210938 12.535156 10.941406 12.667969 10.539062 L 13.285156 8.699219 C 13.285156 8.699219 13.289062 8.703125 13.289062 8.707031 L 13.882812 10.542969 C 14.015625 10.941406 14.386719 11.210938 14.804688 11.210938 L 16.738281 11.234375 Z M 15.179688 12.371094 " fill-opacity="1" fill-rule="nonzero"/><g clip-path="url(#0cbd48fd08)"><path fill="#e86210" d="M 23.46875 13.683594 C 23.1875 13.207031 22.894531 12.710938 22.894531 12.34375 C 22.894531 11.980469 23.183594 11.488281 23.464844 11.011719 C 23.886719 10.304688 24.320312 9.566406 24.082031 8.835938 C 23.832031 8.074219 22.992188 7.714844 22.253906 7.398438 C 21.761719 7.1875 21.253906 6.96875 21.054688 6.699219 C 20.851562 6.421875 20.800781 5.863281 20.75 5.324219 C 20.671875 4.488281 20.589844 3.625 19.949219 3.160156 C 19.320312 2.699219 18.476562 2.882812 17.660156 3.0625 C 17.128906 3.179688 16.578125 3.300781 16.246094 3.195312 C 15.9375 3.09375 15.578125 2.683594 15.230469 2.289062 C 14.695312 1.679688 14.089844 0.984375 13.273438 0.984375 C 12.460938 0.984375 11.855469 1.679688 11.320312 2.289062 C 10.972656 2.683594 10.613281 3.09375 10.304688 3.195312 C 9.964844 3.300781 9.417969 3.179688 8.890625 3.0625 C 8.074219 2.882812 7.234375 2.699219 6.597656 3.160156 C 5.960938 3.625 5.878906 4.488281 5.800781 5.324219 C 5.75 5.863281 5.695312 6.417969 5.492188 6.699219 C 5.296875 6.96875 4.789062 7.1875 4.296875 7.398438 C 3.558594 7.714844 2.71875 8.074219 2.464844 8.835938 C 2.230469 9.570312 2.664062 10.304688 3.082031 11.011719 C 3.363281 11.488281 3.65625 11.980469 3.65625 12.34375 C 3.65625 12.710938 3.363281 13.207031 3.082031 13.683594 C 2.664062 14.394531 2.230469 15.128906 2.46875 15.859375 C 2.71875 16.621094 3.558594 16.980469 4.296875 17.296875 C 4.789062 17.507812 5.296875 17.722656 5.492188 17.996094 C 5.695312 18.273438 5.75 18.832031 5.800781 19.367188 C 5.875 20.164062 5.96875 20.972656 6.515625 21.445312 L 3.847656 26.371094 C 3.757812 26.535156 3.773438 26.734375 3.882812 26.882812 C 3.992188 27.03125 4.175781 27.105469 4.359375 27.066406 L 7.367188 26.464844 L 8.507812 29.3125 C 8.578125 29.484375 8.738281 29.601562 8.925781 29.613281 C 8.933594 29.617188 8.941406 29.617188 8.953125 29.617188 C 9.125 29.617188 9.289062 29.519531 9.371094 29.367188 L 12.539062 23.511719 C 12.75 23.621094 12.996094 23.707031 13.273438 23.707031 C 13.515625 23.707031 13.753906 23.640625 13.992188 23.515625 L 17.160156 29.367188 C 17.242188 29.519531 17.402344 29.617188 17.578125 29.617188 C 17.589844 29.617188 17.597656 29.617188 17.605469 29.613281 C 17.789062 29.605469 17.953125 29.488281 18.019531 29.316406 L 19.164062 26.46875 L 22.171875 27.070312 C 22.351562 27.105469 22.539062 27.03125 22.648438 26.882812 C 22.757812 26.738281 22.773438 26.535156 22.683594 26.375 L 20.027344 21.457031 C 20.582031 20.976562 20.671875 20.167969 20.75 19.371094 C 20.800781 18.835938 20.851562 18.277344 21.054688 17.996094 C 21.253906 17.726562 21.761719 17.507812 22.25 17.300781 C 22.992188 16.984375 23.832031 16.625 24.082031 15.859375 C 24.320312 15.128906 23.886719 14.394531 23.46875 13.683594 Z M 9.015625 28.015625 L 8.105469 25.746094 C 8.03125 25.5625 7.855469 25.445312 7.664062 25.445312 C 7.632812 25.445312 7.601562 25.449219 7.570312 25.453125 L 5.167969 25.933594 L 7.402344 21.816406 C 7.410156 21.820312 7.421875 21.816406 7.429688 21.816406 C 7.457031 21.820312 7.484375 21.816406 7.511719 21.820312 C 7.632812 21.824219 7.753906 21.820312 7.878906 21.808594 C 7.914062 21.808594 7.949219 21.804688 7.984375 21.796875 C 8.109375 21.785156 8.234375 21.765625 8.359375 21.742188 C 8.386719 21.738281 8.417969 21.730469 8.449219 21.726562 C 8.597656 21.695312 8.746094 21.664062 8.890625 21.632812 C 9.421875 21.511719 9.964844 21.386719 10.304688 21.5 C 10.613281 21.597656 10.976562 22.015625 11.324219 22.414062 C 11.472656 22.582031 11.621094 22.753906 11.777344 22.910156 Z M 18.960938 25.453125 C 18.738281 25.40625 18.511719 25.53125 18.425781 25.746094 L 17.515625 28.019531 L 14.753906 22.925781 C 14.777344 22.90625 14.792969 22.882812 14.8125 22.863281 C 14.957031 22.714844 15.09375 22.558594 15.230469 22.402344 C 15.578125 22.007812 15.933594 21.597656 16.246094 21.5 C 16.585938 21.390625 17.132812 21.511719 17.660156 21.628906 C 17.800781 21.664062 17.945312 21.695312 18.089844 21.722656 C 18.125 21.730469 18.164062 21.734375 18.199219 21.742188 C 18.3125 21.761719 18.425781 21.78125 18.535156 21.796875 C 18.582031 21.800781 18.628906 21.804688 18.671875 21.808594 C 18.773438 21.816406 18.867188 21.820312 18.964844 21.816406 C 19.015625 21.816406 19.066406 21.820312 19.113281 21.816406 C 19.121094 21.816406 19.128906 21.816406 19.132812 21.816406 L 21.359375 25.933594 Z M 23.175781 15.5625 C 23.058594 15.914062 22.457031 16.171875 21.875 16.421875 C 21.265625 16.679688 20.636719 16.949219 20.285156 17.433594 C 19.925781 17.925781 19.863281 18.613281 19.796875 19.28125 C 19.738281 19.90625 19.679688 20.550781 19.402344 20.753906 C 19.34375 20.792969 19.308594 20.8125 19.246094 20.828125 C 18.925781 20.933594 18.386719 20.8125 17.867188 20.699219 C 17.378906 20.589844 16.875 20.480469 16.40625 20.507812 C 16.253906 20.519531 16.101562 20.542969 15.953125 20.589844 C 15.394531 20.769531 14.945312 21.28125 14.515625 21.773438 C 14.296875 22.023438 14.070312 22.277344 13.851562 22.46875 C 13.410156 22.847656 13.152344 22.847656 12.683594 22.464844 C 12.464844 22.265625 12.253906 22.023438 12.042969 21.785156 C 11.609375 21.289062 11.160156 20.773438 10.597656 20.589844 C 10.46875 20.546875 10.332031 20.527344 10.195312 20.515625 C 10.15625 20.511719 10.117188 20.511719 10.078125 20.507812 C 10.046875 20.507812 10.015625 20.503906 9.984375 20.503906 C 9.949219 20.503906 9.90625 20.511719 9.867188 20.515625 C 9.722656 20.519531 9.570312 20.535156 9.417969 20.558594 C 9.363281 20.566406 9.308594 20.574219 9.253906 20.582031 C 9.0625 20.617188 8.875 20.65625 8.683594 20.699219 C 8.550781 20.730469 8.414062 20.757812 8.28125 20.785156 C 7.898438 20.863281 7.535156 20.90625 7.28125 20.824219 C 7.242188 20.8125 7.199219 20.792969 7.164062 20.765625 C 6.871094 20.550781 6.808594 19.90625 6.75 19.28125 C 6.6875 18.613281 6.621094 17.921875 6.265625 17.433594 C 5.914062 16.949219 5.285156 16.679688 4.675781 16.421875 C 4.09375 16.171875 3.492188 15.914062 3.375 15.5625 C 3.273438 15.242188 3.609375 14.671875 3.90625 14.167969 C 4.25 13.582031 4.609375 12.972656 4.609375 12.34375 C 4.609375 11.71875 4.253906 11.113281 3.90625 10.527344 C 3.609375 10.023438 3.269531 9.453125 3.375 9.132812 C 3.488281 8.78125 4.089844 8.523438 4.671875 8.273438 C 5.285156 8.015625 5.914062 7.742188 6.265625 7.261719 C 6.621094 6.769531 6.6875 6.082031 6.75 5.414062 C 6.808594 4.789062 6.871094 4.140625 7.160156 3.929688 C 7.445312 3.71875 8.074219 3.859375 8.683594 3.996094 C 9.339844 4.136719 10.015625 4.289062 10.597656 4.101562 C 11.15625 3.921875 11.605469 3.410156 12.035156 2.917969 C 12.457031 2.4375 12.894531 1.941406 13.273438 1.941406 C 13.65625 1.941406 14.09375 2.4375 14.515625 2.917969 C 14.945312 3.410156 15.394531 3.921875 15.953125 4.101562 C 16.535156 4.285156 17.210938 4.136719 17.867188 3.996094 C 18.476562 3.859375 19.101562 3.722656 19.386719 3.929688 C 19.679688 4.140625 19.738281 4.789062 19.800781 5.414062 C 19.863281 6.082031 19.929688 6.769531 20.285156 7.261719 C 20.636719 7.746094 21.269531 8.015625 21.878906 8.273438 C 22.460938 8.523438 23.058594 8.78125 23.175781 9.128906 C 23.28125 9.453125 22.941406 10.023438 22.644531 10.527344 C 22.296875 11.113281 21.941406 11.71875 21.941406 12.34375 C 21.941406 12.972656 22.300781 13.582031 22.648438 14.167969 C 22.957031 14.695312 23.277344 15.242188 23.175781 15.5625 Z M 23.175781 15.5625 " fill-opacity="1" fill-rule="nonzero"/></g></svg>